<svg width="18" height="16" viewBox="0 0 18 16" fill="none" xmlns="http://www.w3.org/2000/svg">
<path d="M16.1367 4.59375C16.1602 4.6875 16.1719 4.83984 16.1719 5.05078C16.1719 6.73828 15.7617 8.36719 14.9414 9.9375C14.0977 11.6016 12.9141 12.9258 11.3906 13.9102C9.72656 15.0117 7.81641 15.5625 5.66016 15.5625C3.59766 15.5625 1.71094 15.0117 0 13.9102C0.257812 13.9336 0.550781 13.9453 0.878906 13.9453C2.58984 13.9453 4.125 13.418 5.48438 12.3633C4.66406 12.3633 3.9375 12.1289 3.30469 11.6602C2.69531 11.168 2.27344 10.5586 2.03906 9.83203C2.27344 9.85547 2.49609 9.86719 2.70703 9.86719C3.03516 9.86719 3.36328 9.83203 3.69141 9.76172C2.84766 9.57422 2.14453 9.14062 1.58203 8.46094C1.01953 7.78125 0.738281 7.00781 0.738281 6.14062V6.07031C1.25391 6.375 1.80469 6.53906 2.39062 6.5625C1.89844 6.21094 1.5 5.76562 1.19531 5.22656C0.890625 4.6875 0.738281 4.10156 0.738281 3.46875C0.738281 2.8125 0.914062 2.19141 1.26562 1.60547C2.17969 2.75391 3.29297 3.66797 4.60547 4.34766C5.94141 5.02734 7.35938 5.40234 8.85938 5.47266C8.8125 5.19141 8.78906 4.91016 8.78906 4.62891C8.78906 3.97266 8.95312 3.36328 9.28125 2.80078C9.60938 2.21484 10.0547 1.75781 10.6172 1.42969C11.1797 1.10156 11.7891 0.9375 12.4453 0.9375C12.9844 0.9375 13.4766 1.04297 13.9219 1.25391C14.3906 1.46484 14.8008 1.74609 15.1523 2.09766C15.9961 1.93359 16.7812 1.64062 17.5078 1.21875C17.2266 2.08594 16.6875 2.76562 15.8906 3.25781C16.5938 3.16406 17.2969 2.96484 18 2.66016C17.4844 3.41016 16.8633 4.05469 16.1367 4.59375Z" fill="#2D2D2D"/>
</svg>
